<svg width="133" height="133" viewBox="0 0 133 133" fill="none" xmlns="http://www.w3.org/2000/svg">
<path fill-rule="evenodd" clip-rule="evenodd" d="M130.291 114.848C129.01 118.116 126.051 122.71 121.81 125.979C119.381 127.834 116.465 129.645 112.49 130.838C108.249 132.119 102.993 132.516 96.4552 132.516H36.8229C30.2854 132.516 25.0731 132.075 20.7884 130.838C16.8129 129.645 13.8975 127.878 11.4681 125.979C7.27171 122.754 4.26801 118.116 2.98701 114.848C0.425031 108.266 0.380859 100.801 0.380859 96.0744V36.442C0.380859 31.7156 0.425031 24.2505 2.98701 17.6689C4.26801 14.4001 7.22754 9.80623 11.4681 6.53749C13.8975 4.68226 16.8129 2.8712 20.7884 1.67856C25.0731 0.441736 30.2854 1.52588e-05 36.8229 1.52588e-05H96.4552C102.993 1.52588e-05 108.205 0.441736 112.49 1.67856C116.465 2.8712 119.381 4.63809 121.81 6.53749C126.006 9.76205 129.01 14.4001 130.291 17.6689C132.897 24.2505 132.897 31.7598 132.897 36.442V96.0744C132.897 100.801 132.853 108.266 130.291 114.848Z" fill="url(#paint0_linear_101_25)"/>
<path d="M77.9913 79.9958C77.8146 78.4056 77.2845 77.2571 76.2244 76.197C74.2366 74.1209 70.747 72.7515 66.639 72.7515C62.531 72.7515 59.0414 74.0767 57.0537 76.197C56.0377 77.3013 55.4635 78.4056 55.2868 79.9958C54.9334 83.0878 55.1543 85.7381 55.5077 90.0228C55.861 94.0867 56.5236 99.5198 57.3629 104.997C57.9813 108.928 58.4672 111.049 58.9089 112.551C59.6598 115.024 62.3543 117.145 66.639 117.145C70.9237 117.145 73.6624 114.98 74.3692 112.551C74.8109 111.049 75.2968 108.928 75.9152 104.997C76.7544 99.4757 77.417 94.0867 77.7704 90.0228C78.168 85.7381 78.3446 83.0878 77.9913 79.9958Z" fill="white"/>
<path d="M77.5053 57.468C77.5053 63.4754 72.6464 68.3343 66.639 68.3343C60.6316 68.3343 55.7726 63.4754 55.7726 57.468C55.7726 51.4605 60.6316 46.6016 66.639 46.6016C72.6464 46.6016 77.5053 51.5047 77.5053 57.468Z" fill="white"/>
<path d="M66.5065 14.6652C41.1517 14.7535 20.3908 35.3377 20.0375 60.6925C19.7724 81.2326 32.8915 98.8131 51.223 105.262C51.6647 105.439 52.1064 105.041 52.0622 104.6C51.8414 103.009 51.5763 101.419 51.3997 99.829C51.3113 99.2548 50.9579 98.8131 50.472 98.548C35.9836 92.2314 25.8682 77.6988 26.0449 60.8692C26.2657 38.7831 44.2879 20.8051 66.3298 20.6284C88.9018 20.4517 107.322 38.739 107.322 61.2668C107.322 77.9196 97.2503 92.2314 82.8944 98.548C82.3643 98.7689 82.0109 99.2548 81.9668 99.829C81.7459 101.419 81.525 103.009 81.3042 104.6C81.2158 105.086 81.7017 105.439 82.1435 105.262C100.298 98.9014 113.329 81.5859 113.329 61.2668C113.241 35.5586 92.2589 14.621 66.5065 14.6652Z" fill="white"/>
<path d="M65.4464 30.1254C48.926 30.7438 35.6744 44.393 35.4535 60.9134C35.321 71.7797 40.7542 81.4092 49.1027 87.1074C49.5003 87.3725 50.0745 87.0633 50.0745 86.5774C49.942 84.678 49.942 82.9994 50.0303 81.2326C50.0745 80.6583 49.8537 80.1283 49.4119 79.7307C44.3321 74.9601 41.2401 68.1576 41.4168 60.6483C41.7702 47.3967 52.4156 36.6187 65.6673 36.0886C80.0674 35.5144 91.9055 47.0875 91.9055 61.3109C91.9055 68.5552 88.8135 75.0926 83.9104 79.7307C83.5128 80.1283 83.292 80.6583 83.292 81.2326C83.3803 82.9553 83.3361 84.6338 83.2478 86.5332C83.2036 87.0191 83.7778 87.3725 84.2196 87.0633C92.4356 81.4534 97.8687 71.9564 97.8687 61.2668C97.9129 43.6863 83.2036 29.4187 65.4464 30.1254Z" fill="white"/>
<defs>
<linearGradient id="paint0_linear_101_25" x1="66.639" y1="1.52588e-05" x2="66.639" y2="132.516" gradientUnits="userSpaceOnUse">
<stop stop-color="#F452FF"/>
<stop offset="1" stop-color="#832BC1"/>
</linearGradient>
</defs>
</svg>
