<svg width="133" height="133" viewBox="0 0 133 133" fill="none" xmlns="http://www.w3.org/2000/svg">
<path fill-rule="evenodd" clip-rule="evenodd" d="M9.41434 52.6006C14.507 52.6006 18.6353 56.7289 18.6353 61.8216V70.6984C18.6353 75.7911 14.507 79.9195 9.41434 79.9195C4.32172 79.9195 0.193329 75.7911 0.193329 70.6984V61.8216C0.193329 56.7289 4.32172 52.6006 9.41434 52.6006Z" fill="#0066D9"/>
<path fill-rule="evenodd" clip-rule="evenodd" d="M123.489 52.6006C128.581 52.6006 132.71 56.7289 132.71 61.8216V70.6984C132.71 75.7911 128.581 79.9195 123.489 79.9195C118.396 79.9195 114.268 75.7911 114.268 70.6984V61.8216C114.268 56.7289 118.396 52.6006 123.489 52.6006Z" fill="#4285F4"/>
<path fill-rule="evenodd" clip-rule="evenodd" d="M37.9329 25.9709C43.0256 25.9709 47.1539 30.0993 47.1539 35.1919V64.2265C47.1539 69.3191 43.0256 73.4475 37.9329 73.4475C32.8403 73.4475 28.7119 69.3191 28.7119 64.2265V35.1919C28.7119 30.0993 32.8403 25.9709 37.9329 25.9709ZM37.9329 79.2318C43.0256 79.2318 47.1539 83.3602 47.1539 88.4529V97.3298C47.1539 102.422 43.0256 106.551 37.9329 106.551C32.8403 106.551 28.7119 102.422 28.7119 97.3298V88.4529C28.7119 83.3602 32.8403 79.2318 37.9329 79.2318Z" fill="#EA4335"/>
<path fill-rule="evenodd" clip-rule="evenodd" d="M94.9701 25.9676C100.063 25.9676 104.191 30.096 104.191 35.1886V44.0655C104.191 49.1581 100.063 53.2865 94.9701 53.2865C89.8775 53.2865 85.7491 49.1581 85.7491 44.0655V35.1886C85.7491 30.096 89.8775 25.9676 94.9701 25.9676ZM94.9701 59.0722C100.063 59.0722 104.191 63.2005 104.191 68.2932V97.3278C104.191 102.42 100.063 106.549 94.9701 106.549C89.8775 106.549 85.7491 102.42 85.7491 97.3278V68.2932C85.7491 63.2005 89.8775 59.0722 94.9701 59.0722Z" fill="#34A853"/>
<path fill-rule="evenodd" clip-rule="evenodd" d="M66.4515 3.05176e-05C71.5441 3.05176e-05 75.6725 4.12842 75.6725 9.22104V18.0979C75.6725 23.1905 71.5441 27.3189 66.4515 27.3189C61.3589 27.3189 57.2305 23.1905 57.2305 18.0979V9.22104C57.2305 4.12842 61.3589 3.05176e-05 66.4515 3.05176e-05ZM66.4515 33.3675C71.5441 33.3675 75.6725 37.4958 75.6725 42.5885V89.9312C75.6725 95.0238 71.5441 99.1522 66.4515 99.1522C61.3589 99.1522 57.2305 95.0238 57.2305 89.9312V42.5885C57.2305 37.4958 61.3589 33.3675 66.4515 33.3675ZM66.4515 105.198C71.5441 105.198 75.6725 109.327 75.6725 114.419V123.296C75.6725 128.389 71.5441 132.517 66.4515 132.517C61.3589 132.517 57.2305 128.389 57.2305 123.296V114.419C57.2305 109.327 61.3589 105.198 66.4515 105.198Z" fill="#FAB908"/>
</svg>
