<svg width="133" height="133" viewBox="0 0 133 133" fill="none" xmlns="http://www.w3.org/2000/svg">
<path fill-rule="evenodd" clip-rule="evenodd" d="M66.7326 132.516C30.0139 132.516 0.474365 102.977 0.474365 66.2582C0.474365 29.5396 30.0139 0 66.7326 0C103.451 0 132.991 29.5396 132.991 66.2582C132.991 102.977 103.451 132.516 66.7326 132.516ZM66.7326 106.29L71.7019 101.32L66.7326 82.2711L61.7632 101.32L66.7326 106.29ZM60.3834 106.013L57.8987 115.4L63.6963 109.603L60.3834 106.013ZM73.0817 106.013L69.7688 109.326L75.5664 115.124L73.0817 106.013ZM77.7761 123.129L66.7326 112.087L55.689 123.129C59.2785 123.683 62.868 124.234 66.7326 124.234C70.5971 124.234 74.1866 123.957 77.7761 123.129ZM66.7326 8.28227C34.7083 8.28227 8.75664 34.2339 8.75664 66.2582C8.75664 91.6566 25.0446 113.191 47.6833 120.921L60.1067 74.8171C57.3454 72.884 55.689 69.5711 55.689 65.9816C55.689 59.909 60.6583 54.9396 66.7326 54.9396C72.8068 54.9396 77.7761 59.909 77.7761 65.9816C77.7761 69.5711 76.1197 72.6074 73.3584 74.8171L85.7818 120.921C108.421 113.191 124.708 91.6566 124.708 66.2582C124.708 34.2339 98.7568 8.28227 66.7326 8.28227ZM104.554 94.9695C103.175 96.626 100.69 97.1792 98.7568 95.7977C96.8254 94.4179 96.5487 91.9332 97.9286 90.2768C97.9286 90.2768 105.383 80.3381 105.383 66.2582C105.383 52.1783 97.9286 42.2396 97.9286 42.2396C96.5487 40.5831 96.8254 38.0985 98.7568 36.7186C100.69 35.3372 103.175 35.8904 104.554 37.5469C105.108 38.0985 113.665 49.417 113.665 66.2582C113.665 83.0994 105.108 94.4179 104.554 94.9695ZM84.4019 84.2026C82.7455 82.5461 83.0205 79.5098 84.6769 77.8534C84.6769 77.8534 88.8181 73.4356 88.8181 66.2582C88.8181 59.0808 84.6769 54.9396 84.6769 54.663C83.0205 53.0065 83.0205 50.2452 84.4019 48.3138C86.0584 46.3807 88.5431 46.3807 90.1995 48.0372C90.4745 48.3138 97.1003 55.2146 97.1003 66.2582C97.1003 77.3018 90.4745 84.2026 90.1995 84.4792C88.5431 86.1356 86.0584 85.859 84.4019 84.2026ZM49.0631 84.2026C47.4067 85.859 44.922 86.1356 43.2656 84.4792C42.9906 83.9276 36.3648 77.3018 36.3648 66.2582C36.3648 55.2146 42.9906 48.5888 43.2656 48.0372C44.922 46.3807 47.6833 46.3807 49.0631 48.3138C50.7196 49.9703 50.4446 53.0065 48.7882 54.663C48.7882 54.9396 44.647 59.0808 44.647 66.2582C44.647 73.4356 48.7882 77.8534 48.7882 77.8534C50.4446 79.5098 50.7196 82.2711 49.0631 84.2026ZM34.7083 95.7977C32.7752 97.1792 30.2906 96.626 28.9107 94.9695C28.3575 94.4179 19.8002 83.0994 19.8002 66.2582C19.8002 49.417 28.3575 38.0985 28.9107 37.5469C30.2906 35.8904 32.7752 35.3372 34.7083 36.7186C36.6397 38.0985 36.9164 40.5831 35.5365 42.2396C35.5365 42.2396 28.0825 52.1783 28.0825 66.2582C28.0825 80.3381 35.5365 90.2768 35.5365 90.2768C36.9164 91.9332 36.3648 94.4179 34.7083 95.7977Z" fill="#FC7E0F"/>
</svg>
