<svg width="133" height="133" viewBox="0 0 133 133" fill="none" xmlns="http://www.w3.org/2000/svg">
<path d="M105.739 58.7392C84.3812 46.0552 49.1521 44.8892 28.7633 51.0772C25.4883 52.0705 22.0264 50.2227 21.0349 46.9483C20.0427 43.6721 21.8888 40.212 25.1649 39.2168C48.5705 32.1126 87.477 33.4846 112.065 48.0799C115.01 49.8287 115.975 53.6318 114.23 56.5715C112.483 59.5166 108.676 60.488 105.738 58.7392M105.039 77.5252C103.541 79.9569 100.362 80.7194 97.9333 79.2264C80.1283 68.2817 52.976 65.1106 31.9101 71.5051C29.1787 72.3299 26.293 70.7906 25.4634 68.0633C25.0679 66.7523 25.2085 65.3379 25.8542 64.1303C26.4999 62.9227 27.5982 62.0205 28.9081 61.6214C52.9724 54.3183 82.8888 57.855 103.34 70.4233C105.768 71.9187 106.532 75.0993 105.039 77.5252ZM96.9317 95.567C96.6495 96.0305 96.2787 96.4338 95.8404 96.7539C95.4021 97.0739 94.9051 97.3043 94.3776 97.432C93.8502 97.5596 93.3027 97.582 92.7666 97.4978C92.2306 97.4136 91.7163 97.2245 91.2534 96.9413C75.6944 87.432 56.1103 85.2845 33.0465 90.5527C32.5181 90.6736 31.971 90.6891 31.4365 90.5985C30.902 90.5079 30.3906 90.3128 29.9315 90.0245C29.4724 89.7362 29.0747 89.3603 28.7609 88.9182C28.4471 88.4761 28.2235 87.9765 28.1029 87.448C27.9814 86.9194 27.9653 86.372 28.0557 85.8371C28.1461 85.3022 28.3411 84.7905 28.6295 84.3311C28.918 83.8717 29.2942 83.4737 29.7367 83.16C30.1792 82.8462 30.6792 82.6228 31.2082 82.5026C56.4474 76.7336 78.0971 79.2163 95.5615 89.8881C96.0245 90.1709 96.4272 90.5421 96.7467 90.9806C97.0661 91.4191 97.2961 91.9162 97.4234 92.4436C97.5507 92.9709 97.5728 93.5182 97.4885 94.0541C97.4043 94.59 97.2153 95.1041 96.9323 95.567M66.5441 1.52588e-05C29.9525 1.52588e-05 0.287109 29.6642 0.287109 66.257C0.287109 102.853 29.9525 132.516 66.5447 132.516C103.139 132.516 132.803 102.853 132.803 66.257C132.803 29.6648 103.139 1.52588e-05 66.5447 1.52588e-05" fill="#1ED760"/>
</svg>
